<svg id="Layer_1" data-name="Layer 1" xmlns="http://www.w3.org/2000/svg" viewBox="0 0 684.63 184.81"><defs><style>.cls-1{font-size:61.76px;stroke:#000;stroke-miterlimit:10;font-family:Tenso-Regular, Tenso;}.cls-2{font-size:60.52px;}.cls-3{font-size:59.29px;}.cls-4{font-size:58.05px;}.cls-5{font-size:56.82px;}.cls-6{font-size:55.58px;letter-spacing:0em;}.cls-7{font-size:54.35px;}.cls-8{font-size:53.11px;}.cls-9{font-size:51.88px;}.cls-10{font-size:50.64px;}.cls-11,.cls-19{font-size:29.64px;}.cls-11{letter-spacing:0em;}.cls-12{font-size:49.41px;}.cls-13{font-size:48.17px;}.cls-14{font-size:46.94px;}.cls-15{font-size:45.7px;}.cls-16{font-size:44.47px;}.cls-17{font-size:43.23px;}.cls-18{font-size:41.99px;}.cls-20{font-size:40.76px;letter-spacing:0em;}.cls-21{font-size:39.52px;letter-spacing:0em;}.cls-22{font-size:38.29px;}.cls-23{font-size:37.05px;}.cls-24{font-size:35.82px;}.cls-25{font-size:34.58px;}</style></defs><title>FMC1 </title><text x="-7.52" y="-236.91"></text><text class="cls-1" transform="translate(114.13 171.15) scale(0.85 1)">F<tspan class="cls-2" x="31.25" y="0">E</tspan><tspan class="cls-3" x="63.57" y="0">L</tspan><tspan class="cls-4" x="93.51" y="0">L</tspan><tspan class="cls-5" x="122.82" y="0">O</tspan><tspan class="cls-6" x="160.89" y="0">W</tspan><tspan class="cls-7" x="210.3" y="0">S</tspan><tspan class="cls-8" x="241.82" y="0">H</tspan><tspan class="cls-9" x="276.82" y="0">I</tspan><tspan class="cls-10" x="296.07" y="0">P</tspan><tspan class="cls-11" x="325.49" y="0"> </tspan><tspan class="cls-12" x="332.34" y="0">M</tspan><tspan class="cls-13" x="372.01" y="0">I</tspan><tspan class="cls-14" x="389.88" y="0">S</tspan><tspan class="cls-15" x="417.1" y="0">S</tspan><tspan class="cls-16" x="443.61" y="0">I</tspan><tspan class="cls-17" x="460.1" y="0">O</tspan><tspan class="cls-18" x="489.07" y="0">N</tspan><tspan class="cls-19" x="516.82" y="0"> </tspan><tspan class="cls-20" x="523.67" y="0">C</tspan><tspan class="cls-21" x="549.23" y="0">H</tspan><tspan class="cls-22" x="575.27" y="0">U</tspan><tspan class="cls-23" x="600.09" y="0">R</tspan><tspan class="cls-24" x="622.28" y="0">C</tspan><tspan class="cls-25" x="644.74" y="0">H</tspan><tspan class="cls-19" x="667.53" y="0"> </tspan></text><rect x="120.65" y="354.2" width="562.6" height="11.55" transform="translate(12.59 -258.18) rotate(3.11)"/><rect x="171.59" y="63.09" width="6.75" height="108.17"/><text x="-7.52" y="-236.91"></text></svg>